<?xml version="1.0" encoding="UTF-8"?><svg id="Layer_1" xmlns="http://www.w3.org/2000/svg" width="595.28" height="348.13" viewBox="0 0 595.28 348.13"><defs><style>.cls-1,.cls-2,.cls-3{fill:#f4f2ea;}.cls-2,.cls-3{stroke:#ebe7e7;}.cls-3{stroke-linecap:round;stroke-linejoin:round;stroke-width:3px;}</style></defs><g id="Group_51"><path id="Subtraction_1-2" class="cls-1" d="m567.11,316.45H28.93V17.88h538.18v11.34c-4.43.09-8.65,1.92-11.74,5.1-3.12,3.18-4.86,7.45-4.85,11.9-.01,4.45,1.73,8.73,4.85,11.9,3.09,3.18,7.31,5.01,11.74,5.1v14.37c-4.43.09-8.65,1.92-11.74,5.1-3.12,3.18-4.86,7.45-4.85,11.9-.01,4.45,1.73,8.73,4.85,11.9,3.09,3.18,7.31,5.01,11.74,5.1v14.37c-4.43.09-8.65,1.92-11.74,5.1-3.12,3.18-4.86,7.45-4.85,11.9-.01,4.45,1.73,8.72,4.85,11.9,3.09,3.18,7.31,5.01,11.74,5.1v14.37c-4.43.09-8.65,1.92-11.74,5.1-3.12,3.18-4.86,7.45-4.85,11.9-.01,4.45,1.73,8.72,4.85,11.9,3.09,3.18,7.31,5.01,11.74,5.1v14.37c-4.43.09-8.65,1.92-11.74,5.1-3.12,3.18-4.86,7.45-4.85,11.9-.01,4.45,1.73,8.72,4.85,11.9,3.09,3.18,7.31,5.01,11.74,5.1v14.37c-4.43.09-8.65,1.92-11.74,5.1-3.12,3.18-4.86,7.45-4.85,11.9-.01,4.45,1.73,8.72,4.85,11.9,3.09,3.18,7.31,5.01,11.74,5.1v11.34h0Z"/><path id="Subtraction_1-3" class="cls-1" d="m567.11,316.45H28.93V17.88h538.18v11.34c-4.43.09-8.65,1.92-11.74,5.1-3.12,3.18-4.86,7.45-4.85,11.9-.01,4.45,1.73,8.73,4.85,11.9,3.09,3.18,7.31,5.01,11.74,5.1v14.37c-4.43.09-8.65,1.92-11.74,5.1-3.12,3.18-4.86,7.45-4.85,11.9-.01,4.45,1.73,8.73,4.85,11.9,3.09,3.18,7.31,5.01,11.74,5.1v14.37c-4.43.09-8.65,1.92-11.74,5.1-3.12,3.18-4.86,7.45-4.85,11.9-.01,4.45,1.73,8.72,4.85,11.9,3.09,3.18,7.31,5.01,11.74,5.1v14.37c-4.43.09-8.65,1.92-11.74,5.1-3.12,3.18-4.86,7.45-4.85,11.9-.01,4.45,1.73,8.72,4.85,11.9,3.09,3.18,7.31,5.01,11.74,5.1v14.37c-4.43.09-8.65,1.92-11.74,5.1-3.12,3.18-4.86,7.45-4.85,11.9-.01,4.45,1.73,8.72,4.85,11.9,3.09,3.18,7.31,5.01,11.74,5.1v14.37c-4.43.09-8.65,1.92-11.74,5.1-3.12,3.18-4.86,7.45-4.85,11.9-.01,4.45,1.73,8.72,4.85,11.9,3.09,3.18,7.31,5.01,11.74,5.1v11.34h0Z"/><path id="Subtraction_1-4" class="cls-3" d="m567.11,316.45H28.93V17.88h538.18v11.34c-4.43.09-8.65,1.92-11.74,5.1-3.12,3.18-4.86,7.45-4.85,11.9-.01,4.45,1.73,8.73,4.85,11.9,3.09,3.18,7.31,5.01,11.74,5.1v14.37c-4.43.09-8.65,1.92-11.74,5.1-3.12,3.18-4.86,7.45-4.85,11.9-.01,4.45,1.73,8.73,4.85,11.9,3.09,3.18,7.31,5.01,11.74,5.1v14.37c-4.43.09-8.65,1.92-11.74,5.1-3.12,3.18-4.86,7.45-4.85,11.9-.01,4.45,1.73,8.72,4.85,11.9,3.09,3.18,7.31,5.01,11.74,5.1v14.37c-4.43.09-8.65,1.92-11.74,5.1-3.12,3.18-4.86,7.45-4.85,11.9-.01,4.45,1.73,8.72,4.85,11.9,3.09,3.18,7.31,5.01,11.74,5.1v14.37c-4.43.09-8.65,1.92-11.74,5.1-3.12,3.18-4.86,7.45-4.85,11.9-.01,4.45,1.73,8.72,4.85,11.9,3.09,3.18,7.31,5.01,11.74,5.1v14.37c-4.43.09-8.65,1.92-11.74,5.1-3.12,3.18-4.86,7.45-4.85,11.9-.01,4.45,1.73,8.72,4.85,11.9,3.09,3.18,7.31,5.01,11.74,5.1v11.34h0Z"/><g id="Group_37"><g id="Group_33"><line id="Line_15" class="cls-2" x1="75.42" y1="18.45" x2="75.42" y2="316.64"/><line id="Line_21" class="cls-2" x1="143.44" y1="18.45" x2="143.44" y2="316.64"/><line id="Line_11" class="cls-2" x1="52.74" y1="18.45" x2="52.74" y2="316.64"/><line id="Line_17" class="cls-2" x1="120.77" y1="18.45" x2="120.77" y2="316.64"/><line id="Line_13" class="cls-2" x1="98.09" y1="18.45" x2="98.09" y2="316.64"/><line id="Line_19" class="cls-2" x1="166.12" y1="18.45" x2="166.12" y2="316.64"/></g><g id="Group_34"><line id="Line_15-2" class="cls-2" x1="211.47" y1="18.45" x2="211.47" y2="316.64"/><line id="Line_21-2" class="cls-2" x1="279.5" y1="18.45" x2="279.5" y2="316.64"/><line id="Line_11-2" class="cls-2" x1="188.8" y1="18.45" x2="188.8" y2="316.64"/><line id="Line_17-2" class="cls-2" x1="256.83" y1="18.45" x2="256.83" y2="316.64"/><line id="Line_13-2" class="cls-2" x1="234.15" y1="18.45" x2="234.15" y2="316.64"/><line id="Line_19-2" class="cls-2" x1="302.18" y1="18.45" x2="302.18" y2="316.64"/></g><g id="Group_35"><line id="Line_15-3" class="cls-2" x1="347.53" y1="18.45" x2="347.53" y2="316.64"/><line id="Line_21-3" class="cls-2" x1="415.56" y1="18.45" x2="415.56" y2="316.64"/><line id="Line_11-3" class="cls-2" x1="324.85" y1="18.45" x2="324.85" y2="316.64"/><line id="Line_17-3" class="cls-2" x1="392.88" y1="18.45" x2="392.88" y2="316.64"/><line id="Line_13-3" class="cls-2" x1="370.21" y1="18.45" x2="370.21" y2="316.64"/><line id="Line_19-3" class="cls-2" x1="438.24" y1="18.45" x2="438.24" y2="316.64"/></g><g id="Group_36"><line id="Line_15-4" class="cls-2" x1="483.59" y1="18.45" x2="483.59" y2="316.64"/><line id="Line_11-4" class="cls-2" x1="460.91" y1="18.45" x2="460.91" y2="316.64"/><line id="Line_17-4" class="cls-2" x1="528.94" y1="18.45" x2="528.94" y2="316.64"/><path id="Path_6" class="cls-2" d="m506.27,18.45v298.19"/></g></g><g id="Group_38"><line id="Line_22" class="cls-2" x1="64.08" y1="18.54" x2="64.08" y2="316.36"/><line id="Line_23" class="cls-2" x1="86.75" y1="18.83" x2="86.75" y2="316.64"/><line id="Line_24" class="cls-2" x1="109.43" y1="18.83" x2="109.43" y2="316.64"/><line id="Line_25" class="cls-2" x1="132.11" y1="18.83" x2="132.11" y2="316.64"/><line id="Line_26" class="cls-2" x1="154.78" y1="18.83" x2="154.78" y2="316.64"/><line id="Line_27" class="cls-2" x1="177.46" y1="18.83" x2="177.46" y2="316.64"/><line id="Line_28" class="cls-2" x1="42.16" y1="18.83" x2="42.16" y2="316.64"/><line id="Line_29" class="cls-2" x1="199.38" y1="18.83" x2="199.38" y2="316.64"/><line id="Line_30" class="cls-2" x1="243.98" y1="17.88" x2="243.98" y2="315.7"/><line id="Line_31" class="cls-2" x1="266.65" y1="18.83" x2="266.65" y2="316.64"/><line id="Line_32" class="cls-2" x1="289.33" y1="17.88" x2="289.33" y2="315.7"/><line id="Line_33" class="cls-2" x1="312.01" y1="18.83" x2="312.01" y2="316.64"/><line id="Line_34" class="cls-2" x1="334.68" y1="17.88" x2="334.68" y2="315.7"/><line id="Line_35" class="cls-2" x1="357.36" y1="17.88" x2="357.36" y2="315.7"/><line id="Line_36" class="cls-2" x1="222.06" y1="18.83" x2="222.06" y2="316.64"/><line id="Line_37" class="cls-2" x1="380.03" y1="17.88" x2="380.03" y2="315.7"/><line id="Line_38" class="cls-2" x1="427.65" y1="18.83" x2="427.65" y2="316.64"/><line id="Line_39" class="cls-2" x1="451.09" y1="18.83" x2="451.09" y2="316.64"/><line id="Line_40" class="cls-2" x1="471.5" y1="17.88" x2="471.5" y2="315.7"/><line id="Line_41" class="cls-2" x1="494.17" y1="18.83" x2="494.17" y2="316.64"/><path id="Path_7" class="cls-2" d="m517.66,17.62v297.35"/><line id="Line_43" class="cls-2" x1="541.79" y1="17.88" x2="541.79" y2="315.7"/><line id="Line_44" class="cls-2" x1="404.22" y1="18.83" x2="404.22" y2="316.64"/></g><g id="Group_45"><g id="Group_39"><line id="Line_45" class="cls-2" x1="566.74" y1="26.76" x2="29.31" y2="26.76"/><line id="Line_46" class="cls-2" x1="554.64" y1="34.32" x2="29.31" y2="34.32"/><line id="Line_47" class="cls-2" x1="550.86" y1="41.88" x2="29.31" y2="41.88"/><line id="Line_48" class="cls-2" x1="550.11" y1="49.44" x2="28.93" y2="49.44"/><line id="Line_49" class="cls-2" x1="553.13" y1="57" x2="29.31" y2="57"/><line id="Line_50" class="cls-2" x1="566.74" y1="64.56" x2="29.31" y2="64.56"/><line id="Line_51" class="cls-2" x1="567.11" y1="72.12" x2="29.69" y2="72.12"/></g><g id="Group_40"><line id="Line_45-2" class="cls-2" x1="557.66" y1="79.68" x2="29.31" y2="79.68"/><line id="Line_46-2" class="cls-2" x1="550.86" y1="87.23" x2="29.31" y2="87.23"/><line id="Line_47-2" class="cls-2" x1="550.11" y1="94.79" x2="28.55" y2="94.79"/><line id="Line_48-2" class="cls-2" x1="551.62" y1="102.35" x2="28.93" y2="102.35"/><line id="Line_49-2" class="cls-2" x1="558.42" y1="109.91" x2="29.31" y2="109.91"/><line id="Line_50-2" class="cls-2" x1="566.74" y1="117.47" x2="29.31" y2="117.47"/><line id="Line_51-2" class="cls-2" x1="566.74" y1="125.03" x2="29.69" y2="125.03"/></g><g id="Group_41"><line id="Line_45-3" class="cls-2" x1="558.04" y1="125.03" x2="29.69" y2="125.03"/><line id="Line_46-3" class="cls-2" x1="553.89" y1="132.59" x2="29.69" y2="132.59"/><line id="Line_47-3" class="cls-2" x1="550.11" y1="140.15" x2="28.93" y2="140.15"/><line id="Line_48-3" class="cls-2" x1="550.86" y1="147.7" x2="29.31" y2="147.7"/><line id="Line_49-3" class="cls-2" x1="555.4" y1="155.26" x2="29.69" y2="155.26"/><line id="Line_50-3" class="cls-2" x1="566.74" y1="162.82" x2="29.69" y2="162.82"/><line id="Line_51-3" class="cls-2" x1="566.74" y1="170.38" x2="30.06" y2="170.38"/></g><g id="Group_42"><line id="Line_45-4" class="cls-2" x1="556.91" y1="177.94" x2="29.31" y2="177.94"/><path id="Path_8" class="cls-2" d="m550.76,185.5H27.61"/><line id="Line_47-4" class="cls-2" x1="550.11" y1="193.06" x2="28.55" y2="193.06"/><line id="Line_48-4" class="cls-2" x1="552.37" y1="200.62" x2="28.93" y2="200.62"/><line id="Line_49-4" class="cls-2" x1="561.44" y1="208.17" x2="29.31" y2="208.17"/><line id="Line_50-4" class="cls-2" x1="566.36" y1="215.73" x2="29.31" y2="215.73"/><line id="Line_51-4" class="cls-2" x1="561.44" y1="223.29" x2="29.69" y2="223.29"/></g><g id="Group_43"><line id="Line_45-5" class="cls-2" x1="552.37" y1="230.85" x2="29.69" y2="230.85"/><path id="Path_8-2" class="cls-2" d="m550.48,238.41H27.34"/><line id="Line_47-5" class="cls-2" x1="550.86" y1="245.97" x2="28.93" y2="245.97"/><line id="Line_48-5" class="cls-2" x1="556.15" y1="253.53" x2="29.31" y2="253.53"/><line id="Line_49-5" class="cls-2" x1="566.74" y1="261.09" x2="29.69" y2="261.09"/><line id="Line_50-5" class="cls-2" x1="566.74" y1="268.64" x2="29.69" y2="268.64"/><line id="Line_51-5" class="cls-2" x1="554.64" y1="276.2" x2="30.06" y2="276.2"/></g><g id="Group_44"><line id="Line_45-6" class="cls-2" x1="550.86" y1="283.76" x2="29.69" y2="283.76"/><path id="Path_8-3" class="cls-2" d="m550.07,291.32H27.34"/><line id="Line_47-6" class="cls-2" x1="553.89" y1="298.88" x2="28.93" y2="298.88"/><line id="Line_48-6" class="cls-2" x1="566.74" y1="306.44" x2="29.31" y2="306.44"/></g></g></g></svg>